<?xml version="1.0" encoding="UTF-8"?>
<svg width="452px" height="261px" viewBox="0 0 452 261" version="1.1" xmlns="http://www.w3.org/2000/svg" xmlns:xlink="http://www.w3.org/1999/xlink">
    <!-- Generator: Sketch 52.5 (67469) - http://www.bohemiancoding.com/sketch -->
    <title>Landing-bg_Icon</title>
    <desc>Created with Sketch.</desc>
    <g id="Page-1" stroke="none" stroke-width="1" fill="none" fill-rule="evenodd">
        <g id="Landing-Page" transform="translate(-734.000000, -381.000000)" fill="#FFFFFF">
            <g id="Landing-Bg" transform="translate(-0.877930, -1.500000)">
                <path d="M1029.56119,606.420651 C1018.9188,591.500477 1013.94444,573.269303 1013.94444,554.948733 L1013.94444,441.230456 C1013.83703,434.182707 1010.20417,429.826893 1003.44526,428.583172 C1002.57704,428.424495 1001.56114,428.30828 1000.4602,428.30828 C994.859294,428.30828 990.592044,431.280693 988.437161,436.680205 L897.971232,612.719709 C889.30359,629.586479 871.91572,640.193301 852.933505,640.193301 C830.57911,640.193301 810.871888,625.550254 804.446398,604.166757 L735.224976,382.800185 L782.957985,382.800185 L843.848536,575.173435 C846.477806,583.864951 858.330782,585.010335 862.580131,576.984819 L945.853047,419.705043 C954.873123,397.115819 976.346992,382.52194 1000.56313,382.52194 C1004.27096,382.52194 1008.03026,382.866114 1011.72914,383.54664 C1040.01114,388.736072 1059.32118,411.416927 1059.78326,439.977796 L1059.79221,556.128758 C1059.79333,562.874796 1061.08335,569.666648 1064.29777,575.598066 C1071.75819,589.367268 1085.46955,597.291096 1100.25389,597.291096 C1100.90617,597.291096 1101.56405,597.276569 1102.21745,597.244163 C1123.42951,596.247399 1140.682,577.34799 1140.682,555.109645 L1140.682,382.800185 L1186.53088,382.800185 L1186.53088,555.109645 C1186.53088,602.223514 1150.44498,640.822424 1104.37681,642.98804 C1102.97826,643.0495 1101.56405,643.086375 1100.16997,643.086375 C1072.35005,643.086375 1046.27328,629.852431 1029.56119,606.420651 Z" id="Landing-bg_Icon"></path>
            </g>
        </g>
    </g>
</svg>