<svg width="16" height="16" viewBox="0 0 16 16" fill="none" xmlns="http://www.w3.org/2000/svg">
<path d="M8.32484 1.28698L6.30084 3.26165C6.11407 3.44732 6.00808 3.69917 6.00589 3.96252C6.00371 4.22587 6.10549 4.47945 6.28915 4.66821C6.47281 4.85696 6.72351 4.96564 6.98682 4.97065C7.25014 4.97566 7.50479 4.8766 7.6955 4.69498L9.73151 2.71098C9.96232 2.47105 10.2387 2.27964 10.5445 2.14798C10.8503 2.01633 11.1793 1.94708 11.5123 1.9443C11.8452 1.94151 12.1753 2.00526 12.4833 2.13179C12.7912 2.25831 13.0708 2.44508 13.3056 2.68112C13.5404 2.91715 13.7257 3.19771 13.8506 3.50633C13.9755 3.81494 14.0375 4.1454 14.0329 4.4783C14.0284 4.8112 13.9574 5.13984 13.8241 5.44494C13.6909 5.75003 13.498 6.02543 13.2568 6.25498L11.2822 8.28032C11.1887 8.37396 11.1147 8.48523 11.0646 8.60767C11.0144 8.73011 10.989 8.86129 10.9899 8.9936C10.9908 9.12592 11.018 9.25674 11.0698 9.37848C11.1216 9.50023 11.1971 9.61048 11.2919 9.70284C11.3866 9.79521 11.4987 9.86785 11.6218 9.91656C11.7448 9.96527 11.8763 9.98908 12.0086 9.98662C12.1409 9.98415 12.2713 9.95545 12.3925 9.90219C12.5136 9.84892 12.6229 9.77215 12.7142 9.67632L14.6808 7.66032C15.5228 6.81536 15.9956 5.67115 15.9956 4.47831C15.9956 3.28548 15.5228 2.14126 14.6808 1.29631C13.8243 0.480803 12.6874 0.0251792 11.5047 0.0234425C10.322 0.0217058 9.18379 0.473989 8.32484 1.28698Z" fill="#0000FF"/>
<path d="M8.3018 11.2631L6.2658 13.2485C6.03388 13.4839 5.75758 13.671 5.45289 13.7989C5.1482 13.9269 4.82116 13.9931 4.4907 13.9939C4.16023 13.9947 3.8329 13.9299 3.52762 13.8034C3.22234 13.6768 2.94519 13.491 2.71217 13.2567C2.47916 13.0223 2.29492 12.7441 2.17011 12.4381C2.04529 12.1322 1.98238 11.8045 1.98501 11.474C1.98764 11.1435 2.05577 10.8169 2.18544 10.5129C2.31511 10.209 2.50376 9.93373 2.74047 9.70314L4.71514 7.67781C4.8966 7.48721 4.99561 7.23276 4.9907 6.96964C4.9858 6.70652 4.87737 6.45593 4.68893 6.27223C4.50049 6.08853 4.24723 5.98651 3.98407 5.9883C3.7209 5.9901 3.46906 6.09556 3.28314 6.28181L1.31647 8.29781C0.491083 9.14468 0.0322257 10.2824 0.0391395 11.465C0.0460534 12.6475 0.518182 13.7798 1.35342 14.617C2.18865 15.4541 3.31986 15.9289 4.50238 15.9385C5.68491 15.9481 6.8237 15.4919 7.67247 14.6685L9.69647 12.6965C9.88324 12.5108 9.98923 12.2589 9.99141 11.9956C9.9936 11.7322 9.89182 11.4787 9.70816 11.2899C9.5245 11.1012 9.27379 10.9925 9.01048 10.9875C8.74717 10.9825 8.49252 11.0815 8.3018 11.2631Z" fill="#0000FF"/>
<path d="M4.62515 11.3499C4.71781 11.443 4.82794 11.5168 4.94921 11.5672C5.07048 11.6175 5.2005 11.6435 5.33182 11.6435C5.46313 11.6435 5.59316 11.6175 5.71443 11.5672C5.83569 11.5168 5.94582 11.443 6.03848 11.3499L11.3718 6.01658C11.4674 5.92438 11.5436 5.81407 11.5961 5.69209C11.6485 5.57011 11.6762 5.4389 11.6774 5.30613C11.6786 5.17335 11.6534 5.04166 11.6032 4.91874C11.5529 4.79582 11.4787 4.68413 11.3849 4.59019C11.291 4.49626 11.1794 4.42195 11.0565 4.37161C10.9337 4.32127 10.802 4.29591 10.6692 4.297C10.5364 4.29809 10.4052 4.32562 10.2832 4.37797C10.1612 4.43032 10.0508 4.50645 9.95848 4.60191L4.62515 9.93525C4.53222 10.0281 4.45851 10.1384 4.40821 10.2598C4.35792 10.3811 4.33203 10.5112 4.33203 10.6426C4.33203 10.774 4.35792 10.904 4.40821 11.0254C4.45851 11.1468 4.53222 11.2571 4.62515 11.3499Z" fill="#0000FF"/>
</svg>
