<?xml version="1.0" standalone="no"?>
<!DOCTYPE svg PUBLIC "-//W3C//DTD SVG 20010904//EN"
 "http://www.w3.org/TR/2001/REC-SVG-20010904/DTD/svg10.dtd">
<svg version="1.0" xmlns="http://www.w3.org/2000/svg"
 width="160.000000pt" height="160.000000pt" viewBox="0 0 160.000000 160.000000"
 preserveAspectRatio="xMidYMid meet">
<metadata>
Created by potrace 1.11, written by Peter Selinger 2001-2013
</metadata>
<g transform="translate(0.000000,160.000000) scale(0.100000,-0.100000)"
fill="#000000" stroke="none">
<path d="M664 1526 c-151 -35 -265 -99 -373 -212 -87 -90 -142 -179 -179 -292
-21 -66 -25 -96 -26 -207 -1 -153 13 -217 76 -345 34 -70 58 -102 137 -180
105 -105 179 -150 311 -192 108 -33 292 -33 400 0 131 41 206 87 306 186 101
101 151 181 192 304 21 66 25 96 26 207 1 153 -13 217 -76 345 -34 70 -58 102
-137 180 -104 104 -179 150 -306 190 -90 28 -263 36 -351 16z m-150 -678 c30
-95 57 -183 61 -196 4 -14 13 -22 22 -20 9 2 57 80 109 178 97 182 120 210
177 210 15 0 41 -7 57 -15 51 -26 60 -58 60 -215 0 -136 1 -142 25 -165 13
-14 35 -25 49 -25 76 0 86 28 86 245 l0 175 45 0 45 0 0 -179 c0 -191 -7 -228
-49 -274 -56 -61 -132 -74 -203 -35 -71 40 -82 72 -88 243 -7 208 -13 206
-140 -40 -82 -161 -103 -193 -131 -207 -20 -10 -43 -15 -58 -12 -55 13 -71 43
-142 270 -38 121 -69 222 -69 227 0 4 20 7 45 7 l44 0 55 -172z m-84 -306 c0
-9 -5 -10 -17 -4 -10 5 -25 12 -33 15 -8 3 0 4 17 4 19 -1 33 -7 33 -15z"/>
</g>
</svg>
